<?xml version="1.0" encoding="utf-8"?>
<!-- Generator: Adobe Illustrator 22.1.0, SVG Export Plug-In . SVG Version: 6.00 Build 0)  -->
<svg version="1.1" id="Layer_1" xmlns="http://www.w3.org/2000/svg" xmlns:xlink="http://www.w3.org/1999/xlink" x="0px" y="0px"
	 viewBox="0 0 2310.2 2598.7" style="enable-background:new 0 0 2310.2 2598.7;" xml:space="preserve">
<style type="text/css">
	.st0{fill:url(#SVGID_1_);}
	.st1{display:none;fill:none;}
	.st2{fill:#FFFFFF;}
	.st3{fill:#060807;}
</style>
<g>
	<radialGradient id="SVGID_1_" cx="1155.1144" cy="1299.3517" r="1229.3502" gradientUnits="userSpaceOnUse">
		<stop  offset="0" style="stop-color:#FCCE0F"/>
		<stop  offset="1" style="stop-color:#F9A220"/>
	</radialGradient>
	<path class="st0" d="M2205.6,572.2c-1.7,49.4-8.7,111.4-19,152.5c-13,51.5-30.9,101.3-52.1,150c-13.8,31.7-28.9,62.7-45,91.1
		c-16.1,26.8-31.1,52-49.5,75c-12.6,15.8-26,31-42.1,43.4c-11,8.5-22.8,15.6-36.7,18.5c-17.2,3.6-24.8,0.5-32-15.6
		c-6.2-13.9-11.8-28.3-16.2-42.9c-22.1-73.8-34.6-149.4-40.5-226.1c-1.7-22.4-1.7-44.9-3-67.3c-1.4-25.8,0.4-51.5,3.2-77.1
		c2.2-20,6.9-39.6,11.9-59.1c10.9-42.4,25.3-83.4,45.7-122.3c7.5-14.4,15.1-28.7,24.7-41.9c1.7-2.3,6.1-9.1,11.1-16.7L1266.5,29.8
		c-68.9-39.8-153.8-39.8-222.7,0L638.2,264c1.9,0.4,3.2,0.7,3.5,0.8c31.4,7.9,61.8,18.9,91.5,31.8c19.3,8.4,38.2,17.7,55.6,27.4
		c16.3,9.8,31.7,19,45.7,30.2c9.6,7.7,18.9,15.8,26.5,25.7c5.2,6.7,9.5,13.9,11.3,22.4c2.2,10.5,0.3,15.1-9.5,19.5
		c-8.5,3.8-17.2,7.2-26.2,9.9c-45,13.5-91.2,21.1-138,24.7c-13.6,1-27.4,1-41,1.8c-15.7,0.9-31.4-0.2-47-1.9
		c-12.2-1.3-24.2-4.2-36.1-7.2c-25.9-6.6-50.9-15.5-74.6-27.9c-8.8-4.6-17.5-9.2-25.5-15.1c-4.7-3.4-9.5-6.6-14.1-10.2
		c-4.3-3.4-12.7-11-19.8-17.8l-329.2,190C42.5,607.9,0,681.5,0,761.1v1076.6c0,79.6,42.5,153.1,111.4,192.9l234.8,135.5
		c1.1-49.5,4.5-111.7,9.5-155.4c5.4-46.4,12.9-92.3,22.5-135.4c10.3-40.9,19.9-79.4,34.7-116.3c10.2-25.4,21.5-50.2,37.5-72.6
		c11-15.2,23.3-29.1,40.2-38.2c20.9-11.3,31.9-10.4,47.5,7.6c13.5,15.6,26.3,31.9,37.7,49.1c57.5,86.8,103.2,179.7,140.8,276.5
		c11,28.2,19.7,57.3,30.1,85.8c12,32.8,19.6,66.7,26,100.9c5,26.7,6.6,53.9,7.7,81c2,48,0,112.3-6.7,163.7l269.9,155.8
		c68.9,39.8,153.8,39.8,222.7,0l932.4-538.3c68.9-39.8,111.4-113.3,111.4-192.9V761.1C2310.2,684.1,2270.5,612.8,2205.6,572.2z"/>
</g>
<g>
	<g>
		<path class="st1" d="M2205.9,572.4c0.8,51.6-6.8,102.2-19.3,152.3c-13,51.5-30.9,101.3-52.1,150c-13.8,31.7-28.9,62.7-45,91.1
			c-16.1,26.8-31.1,52-49.5,75c-12.6,15.8-26,31-42.1,43.4c-11,8.5-22.8,15.6-36.7,18.5c-17.2,3.6-24.8,0.5-32-15.6
			c-6.2-13.9-11.8-28.3-16.2-42.9c-22.1-73.8-34.6-149.4-40.5-226.1c-1.7-22.4-1.7-44.9-3-67.3c-1.4-25.8,0.4-51.5,3.2-77.1
			c2.2-20,6.9-39.6,11.9-59.1c10.9-42.4,25.3-83.4,45.7-122.3c7.5-14.4,15.1-28.7,24.7-41.9c3.9-5.4,7.7-11,11.7-16.4L1266.5,29.8
			c-68.9-39.8-153.8-39.8-222.7,0L638.3,263.9c1.1,0.3,2.3,0.5,3.4,0.8c31.4,7.9,61.8,18.9,91.5,31.8c19.3,8.4,38.2,17.7,55.6,27.4
			c16.3,9.8,31.7,19,45.7,30.2c9.6,7.7,18.9,15.8,26.5,25.7c5.2,6.7,9.5,13.9,11.3,22.4c2.2,10.5,0.3,15.1-9.5,19.5
			c-8.5,3.8-17.2,7.2-26.2,9.9c-45,13.5-91.2,21.1-138,24.7c-13.6,1-27.4,1-41,1.8c-15.7,0.9-31.4-0.2-47-1.9
			c-12.2-1.3-24.2-4.2-36.1-7.2c-25.9-6.6-50.9-15.5-74.6-27.9c-8.8-4.6-17.5-9.2-25.5-15.1c-4.7-3.4-9.5-6.6-14.1-10.2
			c-6.9-5.5-13.4-11.5-19.3-18.1L111.4,568.1C42.5,607.9,0,681.5,0,761.1v1076.6c0,79.6,42.5,153.1,111.4,192.9l234.4,135.3
			c0.3-51.8,3.9-103.5,9.9-155.1c5.4-46.4,12.9-92.3,22.5-135.4c10.3-40.9,19.9-79.4,34.7-116.3c10.2-25.4,21.5-50.2,37.5-72.6
			c11-15.2,23.3-29.1,40.2-38.2c20.9-11.3,31.9-10.4,47.5,7.6c13.5,15.6,26.3,31.9,37.7,49.1c57.5,86.8,103.2,179.7,140.8,276.5
			c11,28.2,19.7,57.3,30.1,85.8c12,32.8,19.6,66.7,26,100.9c5,26.7,6.6,53.9,7.7,81c2.3,54.5,0.2,108.7-8.8,162.5l272.1,157.1
			c68.9,39.8,153.8,39.8,222.7,0l932.4-538.3c68.9-39.8,111.4-113.3,111.4-192.9V761.1C2310.2,684.2,2270.7,613,2205.9,572.4z
			 M1469,726.9c1.3-4.8,2.8-9.4,4.3-14.2c-0.3-0.1-0.6-0.3-0.9-0.4c6.2-14.2,12.3-28.4,18.8-42.5c3.9-8.4,7.6-17.1,12.8-24.6
			c8.4-12.2,19-22.4,31.4-30.6c50.2-33.2,104.7-56.1,163.7-67.7c24.4-4.8,48.4-2.5,71.8,7.1c17.3,7.1,34.9,13.5,51.5,22.4
			c1.3,0.7,2.6,1.4,3.9,2.1c6.4,3.8,10.5,8.8,9.7,16.8c-0.8,8.3-4.6,14.6-12.4,17.8c-4.1,1.7-8.5,2.5-12.8,3.4
			c-48.1,10.9-95.7,23.9-141.9,41.2c-40.8,15.3-79,35.9-116.5,57.8c-17.1,10-33.6,21.1-50.4,31.7c-10.6,6.7-24.8,3.3-31.2-7.5
			C1468.1,735.7,1467.7,731.4,1469,726.9z M1823.7,850.8c1.5,13.9,0.1,16.1-13.2,20.1c-43.8,13.3-85.6,31.3-125.8,53.2
			c-17.8,9.7-17.8,9.6-29.9-6.2c-23.3-30.3-47.9-59.5-74.6-86.9c-0.5-0.5-1-1.1-1.5-1.6c-6.3-6.8-6.2-12.4,2.5-17.1
			c24.9-13.4,49.7-27.1,74.9-40.1c27.4-14.2,56.1-25.5,85.4-35.1c20.4-6.7,41.1-12.2,61.7-18.1c2.8-0.8,5.7-0.8,9.3-1.3
			c1.7,2.2,3.7,4,4.6,6.3c0.8,1.9,0.6,4.3,0.6,6.5C1817.1,770.8,1819.4,810.8,1823.7,850.8z M1107.8,476.4c1.7-1.2,3.6-2.2,5.5-3
			c8.1-3.3,16.6-5.3,25.3-6.2c2-0.2,4.1-0.9,6-0.8c2.9,0.2,5.8,0.8,8.7,1.3c2.4,1.1,4.8,2.1,7.1,3.5c6.8,4,5.9,11.9,0.8,16.5
			c-4.1,3.6-9,5.6-14.4,5.7c-5.8,0.1-11.7-0.2-17.5-1c-6.5-0.9-13.1-1.9-19-5.3c-1-0.6-2.2-1.1-3-1.9
			C1104.3,482.3,1104.4,478.9,1107.8,476.4z M1113.1,757.8c7.5-13.3,18.1-23.6,31.4-31.3c19.3-11.2,40.3-16.2,62.4-17.5
			c17.7-1.1,35.3-0.2,52.7,2.3c9.4,1.4,18.6,3.5,28,5.3c16,3.1,31.3,8.3,46.7,13.6c41.5,14.4,80.1,34.4,117.1,57.8
			c17,10.8,33.9,21.9,49.1,34.9c19.5,16.7,38.5,34.2,55.1,54c14.4,17.2,29.8,33.6,43.9,51c48.2,59.9,90.9,123.6,125.4,192.5
			c6.8,13.6,12.6,27.9,17.6,42.3c5.8,16.7,2.3,24.1-12.6,33.3c-12.1,7.4-25.6,10.2-39.4,11.6c-20.3,2.1-40.4,0.1-60.4-2.7
			c-29.1-4.2-57.4-12.2-87.4-20.7c-31.2-9.8-63.5-21.9-95.2-35.6c-48.8-21-95.9-44.9-140.7-73.6c-47.2-30.2-90.5-65.1-127.2-107.6
			c-23.6-27.3-44.9-56.3-59.7-89.5c-9.8-22-17.3-44.6-18.1-69C1101.2,791.1,1104.2,773.7,1113.1,757.8z M1048.2,335.5
			c0.3-1.3,0.8-2.6,1.2-3.9c4.5-11.5,12.6-20.4,21.7-28.3c3.3-2.9,7.3-4.8,11.7-5.6c9.4-1.8,15.3,4.6,12.8,13.8
			c-1.5,5.6-4.7,9.9-9,13.6c-8.4,7.2-17.8,12.6-28.1,16.5c-1.4,0.5-2.9,0.8-4.3,0.9C1050,342.6,1047.4,339.5,1048.2,335.5z
			 M956.5,354.5c1.3-0.4,2.9-0.4,4.3-0.3c4.6,0.4,9.3,0.7,13.8,1.4c2.8,0.4,5.5,1.6,8.2,2.4c8.5,2,15.3,6.7,20.6,13.4
			c4.4,5.5,8.9,11,13.2,16.6c11.9,15.3,19,32.8,23.9,51.3c3.8,14.6,5.5,29.5,5.2,44.6c-0.2,10.6-4.8,19.2-11.4,27
			c-2.7,3.2-5.5,6.3-8.2,9.4c-0.7,0.8-1.4,1.5-2.3,2.1c-3.1,2.2-5.2,1.6-6.5-2.1c-0.5-1.4-0.7-2.9-1-4.4c-4-19.9-8.5-39.7-14.7-59
			c-7.8-24.2-18.4-47.2-31.5-69c-5.2-8.6-10.5-17.2-15.7-25.9C952.3,358.6,953.2,355.5,956.5,354.5z M790.1,475.5
			c2.1-0.8,4.3-1.4,6.5-1.8c20.3-4.4,40.4-9.4,60.1-16.3c8.7-3,17.2-6.5,25.2-11c16.7-9.3,23.7-23.6,22.1-42.4
			c-1.3-14.6-7.1-27.2-15.6-38.9c-8.1-11-17.7-20.5-28.1-29.2c-3.4-2.9-6.9-5.6-10.4-8.5c-1.5-1.2-3.1-2.4-2.3-5.5
			c2.2,0.5,4.1,0.7,5.9,1.3c12.4,4.1,24.8,8.4,37.3,12.4c8.7,2.7,15.4,8,20.4,15.4c17.8,26.1,34.6,52.9,48.5,81.4
			c4.1,8.5,8.4,16.9,10.9,26.1c3.9,14.8,8.3,29.4,12,44.3c3.9,15.5,6.9,31.1,9.6,46.9c2.2,13.1,0,25.1-5.9,36.7
			c-5.8,11.2-11.7,22.4-17.5,33.6c-0.5,0.9-1.1,1.8-1.6,2.7c-0.7,1.2-1.6,1.7-3,1.3c-1.5-0.4-1.7-1.5-1.5-2.8
			c0.6-3.6,1.1-7.1,1.6-10.7c2.5-16.6,3.7-33.2,1.7-49.9c-1.6-13.7-5.6-26.5-13.9-37.7c-4.8-6.5-10.6-11.8-17.7-15.7
			c-5.5-3-11.4-3.7-17.5-3.5c-7.9,0.2-15.4,2.3-22.8,5c-17,6.3-33,14.6-48.7,23.6c-7.6,4.3-15,8.9-22.6,13.3
			c-6.4,3.7-8.1,3.3-11.1-3.3c-4.4-9.6-8.5-19.3-12.5-29c-3.7-8.9-7.1-17.8-10.6-26.7c-0.7-1.8-1.2-3.7-1.5-5.7
			C786.7,478,787.5,476.6,790.1,475.5z M934.8,604.4c-2.5,17.8-7.4,35-12.6,53.3c-6,19-13.4,38.7-21.7,58.1
			c-12.8,29.7-27.4,58.5-44.9,85.8c-18.4,28.8-39.7,55.2-65.6,77.6c-16.7,14.4-34.3,27.4-54.6,36.4c-13.4,6-27.2,10.6-42.1,11
			c-11,0.3-21.6-1.5-31.3-7c-8.1-4.6-14.4-11.1-19.1-19.1c-6.9-11.8-9.9-24.6-10.7-38.1c-0.7-10.8-0.1-21.5,1.4-32.2
			c0.8-5.7,2.2-11.4,3.2-17.1c1.9-9.8,5-19.1,8.3-28.5c8.8-25.3,21-48.9,35.3-71.4c6.6-10.4,13.3-20.7,21.3-30
			c10.2-11.9,20.9-23.5,32.9-33.6c10.5-8.8,20.5-18.2,31.1-26.8c36.6-29.4,75.4-55.5,117.5-76.5c8.3-4.2,17-7.7,25.8-10.7
			c10.2-3.5,14.7-1.4,20.3,7.7c4.5,7.4,6.3,15.6,7.1,24C937.7,579.9,936.5,592.2,934.8,604.4z M641.3,490.2c1.2-0.5,2.6-0.4,4-0.4
			c24.5,0.4,49-1,73.3-3.6c8.5-0.9,9.8,0,12.3,8.1C739,521,750,546.5,763.4,571c5.9,10.8,5.8,10.9-3.8,18.3
			c-18.5,14.2-36.3,29.2-53,45.5c-0.3,0.3-0.6,0.6-1,0.9c-4.1,3.8-7.6,3.8-10.4-1.5c-8.2-15.2-16.5-30.3-24.5-45.7
			c-8.7-16.7-15.6-34.2-21.4-52.1c-4.1-12.4-7.4-25.1-11-37.6c-0.5-1.7-0.5-3.5-0.8-5.7C638.8,492,639.9,490.8,641.3,490.2z
			 M537.5,518.5c4.3-10.6,8.2-21.3,13.7-31.4c0.4-0.8,0.8-1.6,1.3-2.4c2.3-3.9,5.4-6.4,10.2-5.9c5.1,0.5,8.9,2.8,10.9,7.6
			c1,2.5,1.5,5.2,2.1,7.8c6.6,29.4,14.6,58.4,25.1,86.6c9.3,24.9,21.9,48.2,35.3,71.1c6.1,10.4,12.9,20.5,19.3,30.8
			c4.1,6.5,2,15.1-4.6,19c-2.5,1.5-5.1,1.7-7.8,1c-2.9-0.8-5.8-1.7-8.6-2.6c-0.1,0.2-0.2,0.4-0.2,0.6c-8.7-3.8-17.4-7.5-25.9-11.5
			c-5.1-2.4-10.4-4.6-15-7.8c-7.4-5.1-13.7-11.6-18.7-19.2c-20.3-30.6-34.2-63.9-41.3-99.9C530.2,547.4,531.7,532.7,537.5,518.5z
			 M452,993.6c4.1-16.9,21.5-20.2,34.4-12.3c10.3,6.3,17.7,15.5,21.2,26.9c3.9,12.3,7.1,24.9,9,37.6c2.2,14.4,4.3,29,1,43.6
			c-0.6,2.6-1,5.3-2.1,7.6c-4.1,8.4-11.3,10.3-18.9,4.8c-3.7-2.7-7-6.2-9.9-9.8c-12.2-15.1-21.9-31.7-29.3-49.6
			c-1.7-4.2-4.5-8-5.5-12.3c-1.5-6.2-1.9-12.8-2.8-19.3C450.2,1005.1,450.7,999.2,452,993.6z M236.5,1318.2c-3,0.3-6,0-9,0
			c-27.3-2.2-51.2-13.6-74-27.8c-8.2-5.2-14.8-12.4-19.4-21.1c-9.8-18.7,0-35.4,21-35.9c12.8-0.3,24,3.7,34.7,10.4
			c20.7,13.1,38,29.7,53,48.9c2,2.5,3.6,5.6,4.6,8.6C250.4,1310,245.5,1317.3,236.5,1318.2z M332,1491.5c-2.2-10-4.5-20.1-5.9-30.2
			c-0.9-6.2-0.2-12.6-0.2-18.8c-1.3-19.3,4.3-36.6,15.3-52.3c8.9-12.9,17.7-25.9,26.7-38.6c24.7-34.9,57.2-61.3,93.3-83.5
			c28.5-17.5,59-30.5,91.3-39.6c22.5-6.4,43.8-2.1,64.6,6.9c8.5,3.7,16.9,7.5,25.3,11.4c2.1,1,4.2,2.1,6,3.5
			c6.7,5.2,6.7,10.1-0.2,15.1c-2.7,1.9-5.7,3.4-8.7,4.9c-39.6,21.3-78.7,43.4-115.7,68.9c-46.3,31.9-88.1,69.3-126,110.9
			c-15,16.5-29.7,33.3-44.8,49.7c-6.3,6.9-13.3,7.1-17.6,0.6C333.7,1497.8,332.7,1494.6,332,1491.5z M722.8,1771.7
			c-3.4,2.6-7.2,4.9-11.1,6.7c-5.8,2.7-9.3,2-13.3-2.9c-3.1-3.9-5.6-8.2-8-12.6c-22.4-40.2-45.9-79.7-73-116.9
			c-12-16.4-24.7-32.2-39.4-46.4c-30.5-29.4-65.2-35.1-104-19.6c-30,12-53.2,32.5-72.3,58c-18.1,24.1-32.1,50.6-43.9,78.2
			c-3.9,9.1-7.5,18.3-11.3,27.4c-1.6,3.9-3.1,8.2-10.2,8.5c-0.4-4.9-1-9.1-0.9-13.4c0.7-29,2-57.9,2.4-86.9
			c0.3-20.2,7.1-37.7,19.5-53.1c44-54.5,89.9-107.2,141.4-154.8c15.3-14.2,30.4-28.7,48.3-39.8c28.8-17.8,57.1-36.4,86.1-53.8
			c30.3-18.1,61.5-34.6,93.2-50.3c26.3-13.1,53.2-16.2,81.5-11c27.5,5.1,54.9,10.4,82.4,15.6c2.3,0.4,4.5,1.1,6.8,1.6
			c3,0.6,4.7,2.2,4.7,5.5c0,3.4-2.1,4.6-5,5c-7.9,1.1-15.8,2.2-23.7,3.4c-36.7,5.3-72.7,13.3-106.8,28.3
			c-27.9,12.2-52.5,28.8-71,53.5c-10.7,14.3-18.3,30-22,47.7c-2.8,13.6-0.6,26.5,3.7,39.3c5.6,16.6,14.8,31.3,25.3,45.1
			c24.3,31.9,52.1,60.6,81.2,88.1c14,13.3,28.5,26.1,42.6,39.3c11.8,11.2,12.1,15.1,0.1,25.7c-17.4,15.4-35.4,30.3-53.4,45.1
			C756.3,1745.6,739.5,1758.6,722.8,1771.7z M833.3,2087.8c-3-2.2-6.3-3.8-8.5-6.4c-1.8-2.2-2.5-5.4-3.3-8.2
			c-14.9-52.2-33.5-103.1-54.7-153.1c-7.3-17.3-6.4-20.8,9.2-31.2c51.4-34.3,98.4-74,141.8-118c19.2-19.5,19.3-19.4,41.1-3.7
			c41.9,30.1,85.2,58.2,130.4,83.3c0.9,0.5,1.7,1,2.6,1.5c10.8,6.3,12.8,13.7,3.5,23.1c-27,27.1-53.7,54.5-81.1,81.1
			c-29.9,29.1-62.6,54.9-96.7,78.8c-23.7,16.6-48.4,31.8-72.7,47.5C841.7,2084.6,837.8,2085.8,833.3,2087.8z M1267.6,2024.1
			c-1.7,12.4-3.1,25-6.9,36.9c-6.1,19-15.9,36.4-28.7,51.9c-51.9,62.5-113.4,113.4-185.1,151.6c-29.7,15.8-61.6,22.1-95.6,18.9
			c-25.2-2.4-50.4-3.8-75.3-8.9c-2-0.4-3.9-0.7-5.9-1.2c-9.8-2.3-17-7.3-19.1-17.9c-2.2-11,0.2-20.7,9.1-27.8
			c4.6-3.7,10-6.5,15.2-9.5c58-32.9,114.4-68.3,167.4-108.8c46.7-35.7,88.1-77.3,128-120.3c18.2-19.7,35.3-40.4,52.9-60.6
			c11.1-12.8,30.7-13.9,43.3-2.5c4.7,4.3,6.9,9.7,7,16c0.1,6.7,0,13.3,0,20c0.5,0.1,0.9,0.1,1.4,0.2
			C1272.8,1982.6,1270.5,2003.4,1267.6,2024.1z M1721.8,1762.6c-4.5,20.1-14.2,37.6-28.3,52.7c-20.6,22.1-45.8,36.6-73.8,47.1
			c-22.5,8.4-45.5,14.1-69.1,17.6c-12.7,1.9-25.5,2.7-38.2,4.1c-21.9,2.3-43.7,1.6-65.6,0.7c-59.2-2.4-117-13.2-174-29
			c-26.2-7.3-52.3-15-77.2-26c-31.8-14-63.1-29.1-92.3-48.2c-25.4-16.6-51.7-31.7-76.7-48.8c-85.8-58.6-165.9-124.2-237.3-199.9
			c-14.1-15-27.1-31.2-39.2-47.8c-14-19.3-12.4-30.2,3.3-48c12.8-14.3,29-23.2,46.4-30.5c25.4-10.6,52.2-15.9,79.2-20.1
			c39.3-6,78.9-6.6,121.1-7.4c44.1,0.4,90.6,3.5,137,8.8c71.2,8.1,141.6,20.6,210.6,40.2c72.8,20.7,142.4,48.8,206.5,89.4
			c41.2,26.1,80,55.2,112.2,92.3c21.3,24.6,39.9,50.9,50.3,82.1C1724.3,1715,1727.2,1738.6,1721.8,1762.6z M1856.1,1549
			c-0.3,4.7-1.4,9.4-2.1,14.3c-1.9,3.9-3.5,7.9-5.7,11.6c-6.5,11.1-19.6,9.7-27.1,1.4c-5.9-6.6-9.2-14.8-9.3-23.6
			c-0.1-9.5,0.3-19.2,1.7-28.6c1.5-10.7,3.2-21.5,8.6-31.1c1-1.7,1.8-3.5,3.1-4.9c4.7-5,10.2-4.9,14.4,0.6c2,2.7,3.6,5.9,4.9,9
			c5.4,13.3,8.7,27.1,10.2,41.4C1855.2,1542.4,1856.3,1545.7,1856.1,1549z M2040.1,1247.7c-0.6,7.6-1.1,15.2-2.3,22.7
			c-0.7,4.6-2.6,8.9-3.9,13.4c-3.2,14-10.9,25-22,33.8c-9.1,7.2-18.1,14.6-27.2,21.7c-25,19.4-53.7,31.2-84,39.2
			c-23.9,6.3-48.4,8.9-73.2,8.5c-17.3-0.3-31.5-7.9-44.3-18.7c-5.2-4.4-10.3-8.9-15.5-13.5c-1.3-1.1-2.5-2.4-3.5-3.8
			c-3.7-5.1-2.6-8.6,3.4-10.7c2.3-0.8,4.8-1.2,7.2-1.6c32.6-6.6,65.1-13.9,96.7-24c39.7-12.7,77.3-30.2,113.1-51.6
			c14.2-8.5,28.2-17.2,42.4-25.7c5.9-3.5,10.9-2.2,12.6,3.4C2040.2,1242.9,2040.2,1245.4,2040.1,1247.7z M2045.1,1166.3
			c-42.8,29.2-86.7,56.7-133.4,79.4c-13.9,6.8-27.7,13.8-42.8,17.9c-24.2,6.4-48.3,13.6-72.6,19.7c-25.3,6.4-51,11.3-76.8,15.7
			c-21.4,3.6-41.2,0.1-60.1-9.7c-18.4-9.5-36.7-19.1-55-28.7c-1.5-0.8-3-1.7-4.5-2.6c-2-1.1-2.9-2.6-2.2-4.9
			c0.7-2.4,2.4-2.8,4.6-2.5c5.8,0.9,11.7,1.8,17.5,2.7c27.1,4.1,54.4,6.1,81.7,2.8c22.4-2.7,43.4-9.1,61.8-22.7
			c10.6-7.9,19.4-17.4,25.8-29.1c4.9-9,6.1-18.6,5.8-28.6c-0.4-13-3.8-25.3-8.3-37.4c-10.4-27.8-23.9-54.1-38.7-79.8
			c-7.1-12.4-14.6-24.6-21.7-37c-6-10.4-5.3-13.3,5.5-18.2c15.7-7.2,31.6-13.9,47.5-20.5c14.5-6,29.2-11.6,43.8-17.3
			c3-1.1,6.1-1.9,9.3-2.4c4.7-0.7,7,0.5,8.8,4.9c1.4,3.4,2.2,7,3,10.6c7.2,33.3,15.4,66.3,26.7,98.5c5,14.2,10.6,28.1,18,41.3
			c15.3,27.4,38.7,38.8,69.5,36.2c23.8-2.1,44.7-11.7,63.7-25.6c18-13.2,33.6-29,47.9-46c4.7-5.6,9.2-11.4,13.9-17
			c2-2.4,3.9-5.1,9-3.8c-0.8,3.6-1.2,6.7-2.2,9.7c-6.7,20.4-13.8,40.6-20.3,61.1C2065.8,1147.1,2057.2,1158,2045.1,1166.3z
			 M2110.1,1468.5c-9.1-2.5-16.2-7.8-22.3-14.8c-11.9-13.7-20.6-29.2-27.1-46c-0.9-2.2-1.4-4.7-1.4-7.1c-0.2-6.7,4.9-10.8,11.4-9.5
			c2.2,0.4,4.2,1.2,6.4,1.9c18.9,7.4,33.4,20.6,46.5,35.6c4.7,5.4,7.8,11.9,9.2,19.1C2135.6,1462.9,2125.1,1472.6,2110.1,1468.5z"/>
		<path class="st2" d="M1119.8,878.1c14.8,33.2,36.1,62.1,59.7,89.5c36.7,42.5,80,77.4,127.2,107.6c44.7,28.7,91.9,52.6,140.7,73.6
			c31.7,13.7,64,25.8,95.2,35.6c30,8.5,58.3,16.5,87.4,20.7c20,2.9,40.2,4.8,60.4,2.7c13.8-1.4,27.3-4.2,39.4-11.6
			c15-9.2,18.4-16.6,12.6-33.3c-5-14.4-10.8-28.7-17.6-42.3c-34.4-68.9-77.1-132.6-125.4-192.5c-14.1-17.5-29.5-33.8-43.9-51
			c-16.6-19.8-35.6-37.2-55.1-54c-15.3-13.1-32.1-24.2-49.1-34.9c-37-23.4-75.6-43.4-117.1-57.8c-15.3-5.3-30.7-10.5-46.7-13.6
			c-9.3-1.8-18.6-4-28-5.3c-17.5-2.5-35-3.4-52.7-2.3c-22.1,1.4-43.1,6.3-62.4,17.5c-13.3,7.7-23.9,18-31.4,31.3
			c-9,15.9-11.9,33.2-11.4,51.2C1102.4,833.4,1110,856.1,1119.8,878.1z"/>
		<path class="st3" d="M2090.6,1071.7c1-3,1.4-6.1,2.2-9.7c-5.1-1.3-7,1.4-9,3.8c-4.7,5.6-9.2,11.4-13.9,17
			c-14.3,17.1-29.9,32.8-47.9,46c-19,14-39.8,23.5-63.7,25.6c-30.9,2.7-54.2-8.8-69.5-36.2c-7.4-13.2-13-27.1-18-41.3
			c-11.2-32.2-19.4-65.2-26.7-98.5c-0.8-3.6-1.6-7.3-3-10.6c-1.8-4.3-4.1-5.6-8.8-4.9c-3.1,0.5-6.3,1.3-9.3,2.4
			c-14.6,5.7-29.3,11.3-43.8,17.3c-15.9,6.6-31.8,13.3-47.5,20.5c-10.8,5-11.5,7.8-5.5,18.2c7.1,12.4,14.6,24.6,21.7,37
			c14.7,25.7,28.3,52,38.7,79.8c4.5,12.1,7.9,24.4,8.3,37.4c0.3,10-0.9,19.6-5.8,28.6c-6.4,11.7-15.1,21.2-25.8,29.1
			c-18.4,13.6-39.4,20.1-61.8,22.7c-27.4,3.3-54.6,1.2-81.7-2.8c-5.8-0.9-11.7-1.8-17.5-2.7c-2.2-0.3-3.9,0-4.6,2.5
			c-0.7,2.3,0.2,3.8,2.2,4.9c1.5,0.8,3,1.8,4.5,2.6c18.3,9.6,36.6,19.2,55,28.7c19,9.8,38.7,13.3,60.1,9.7
			c25.8-4.4,51.5-9.3,76.8-15.7c24.3-6.1,48.4-13.2,72.6-19.7c15.1-4,28.9-11.1,42.8-17.9c46.7-22.7,90.6-50.2,133.4-79.4
			c12.1-8.2,20.7-19.2,25.2-33.4C2076.8,1112.4,2083.9,1092.1,2090.6,1071.7z"/>
		<path class="st3" d="M1501.7,747.2c16.8-10.6,33.3-21.6,50.4-31.7c37.5-22,75.7-42.5,116.5-57.8c46.2-17.3,93.8-30.3,141.9-41.2
			c4.3-1,8.8-1.8,12.8-3.4c7.8-3.2,11.6-9.5,12.4-17.8c0.8-8-3.3-13-9.7-16.8c-1.3-0.7-2.6-1.4-3.9-2.1
			c-16.5-8.9-34.1-15.3-51.5-22.4c-23.4-9.6-47.4-11.9-71.8-7.1c-59,11.7-113.5,34.5-163.7,67.7c-12.4,8.2-23.1,18.4-31.4,30.6
			c-5.2,7.6-8.9,16.2-12.8,24.6c-6.5,14.1-12.5,28.3-18.8,42.5c0.3,0.1,0.6,0.3,0.9,0.4c-1.4,4.7-2.9,9.4-4.3,14.2
			c-1.2,4.5-0.8,8.8,1.6,12.8C1477,750.5,1491.1,753.9,1501.7,747.2z"/>
		<path class="st3" d="M1817.1,724c-1-2.3-3-4.1-4.6-6.3c-3.6,0.5-6.6,0.5-9.3,1.3c-20.6,5.9-41.3,11.4-61.7,18.1
			c-29.3,9.6-58,20.9-85.4,35.1c-25.1,13-49.9,26.7-74.9,40.1c-8.6,4.6-8.8,10.3-2.5,17.1c0.5,0.5,1,1.1,1.5,1.6
			c26.7,27.4,51.3,56.6,74.6,86.9c12.1,15.8,12.2,15.9,29.9,6.2c40.2-21.9,82-39.9,125.8-53.2c13.3-4,14.7-6.3,13.2-20.1
			c-4.3-40-6.6-80-5.9-120.2C1817.8,728.4,1818,726,1817.1,724z"/>
		<path class="st3" d="M2026.9,1237.4c-14.2,8.5-28.2,17.2-42.4,25.7c-35.8,21.4-73.4,38.9-113.1,51.6c-31.7,10.1-64.1,17.4-96.7,24
			c-2.4,0.5-4.9,0.8-7.2,1.6c-6,2.1-7.1,5.6-3.4,10.7c1,1.4,2.2,2.6,3.5,3.8c5.1,4.5,10.2,9.1,15.5,13.5
			c12.8,10.8,27,18.4,44.3,18.7c24.8,0.5,49.2-2.2,73.2-8.5c30.3-8,59-19.7,84-39.2c9.2-7.1,18.1-14.5,27.2-21.7
			c11.1-8.8,18.8-19.9,22-33.8c1.3-4.5,3.2-8.8,3.9-13.4c1.2-7.5,1.7-15.1,2.3-22.7c0.2-2.3,0.1-4.8-0.5-7
			C2037.8,1235.2,2032.9,1233.8,2026.9,1237.4z"/>
		<path class="st3" d="M1844.7,1497.6c-1.3-3.2-2.9-6.3-4.9-9c-4.2-5.5-9.7-5.7-14.4-0.6c-1.3,1.4-2.2,3.2-3.1,4.9
			c-5.4,9.7-7.1,20.5-8.6,31.1c-1.4,9.4-1.8,19.1-1.7,28.6c0.1,8.8,3.4,16.9,9.3,23.6c7.5,8.4,20.6,9.7,27.1-1.4
			c2.2-3.7,3.8-7.7,5.7-11.6c0.8-4.8,1.9-9.5,2.1-14.3c0.2-3.3-0.9-6.6-1.3-9.9C1853.4,1524.8,1850.1,1510.9,1844.7,1497.6z"/>
		<path class="st3" d="M2123.4,1428.4c-13-15-27.5-28.2-46.5-35.6c-2.1-0.6-4.2-1.5-6.4-1.9c-6.6-1.3-11.6,2.9-11.4,9.5
			c0.1,2.4,0.6,4.9,1.4,7.1c6.5,16.8,15.2,32.3,27.1,46c6.1,7,13.2,12.3,22.3,14.8c15,4.1,25.6-5.6,22.6-20.9
			C2131.3,1440.4,2128.2,1433.9,2123.4,1428.4z"/>
		<path class="st2" d="M1666.3,1609.8c-32.1-37.1-71-66.2-112.2-92.3c-64.1-40.6-133.7-68.7-206.5-89.4
			c-69-19.6-139.4-32.1-210.6-40.2c-46.4-5.3-92.9-8.4-137-8.8c-42.2,0.8-81.8,1.4-121.1,7.4c-27,4.1-53.8,9.5-79.2,20.1
			c-17.3,7.2-33.6,16.1-46.4,30.5c-15.8,17.7-17.3,28.7-3.3,48c12.1,16.7,25.1,32.9,39.2,47.8c71.4,75.7,151.5,141.3,237.3,199.9
			c25,17.1,51.3,32.2,76.7,48.8c29.2,19.1,60.5,34.2,92.3,48.2c24.9,10.9,51,18.7,77.2,26c56.9,15.9,114.7,26.6,174,29
			c21.9,0.9,43.8,1.6,65.6-0.7c12.8-1.3,25.6-2.2,38.2-4.1c23.6-3.5,46.6-9.2,69.1-17.6c28.1-10.4,53.2-25,73.8-47.1
			c14.1-15.1,23.8-32.6,28.3-52.7c5.4-24,2.5-47.6-5.3-70.7C1706.1,1660.7,1687.5,1634.3,1666.3,1609.8z"/>
		<path class="st3" d="M826.1,1687.1c12-10.6,11.8-14.6-0.1-25.7c-14.1-13.3-28.5-26.1-42.6-39.3c-29.1-27.5-56.9-56.2-81.2-88.1
			c-10.5-13.8-19.7-28.5-25.3-45.1c-4.3-12.8-6.5-25.7-3.7-39.3c3.6-17.6,11.3-33.3,22-47.7c18.4-24.7,43.1-41.3,71-53.5
			c34.1-14.9,70.1-22.9,106.8-28.3c7.9-1.2,15.8-2.3,23.7-3.4c3-0.4,5-1.6,5-5c0-3.2-1.7-4.8-4.7-5.5c-2.3-0.5-4.5-1.1-6.8-1.6
			c-27.5-5.2-54.9-10.6-82.4-15.6c-28.3-5.2-55.3-2.1-81.5,11c-31.6,15.7-62.9,32.2-93.2,50.3c-29,17.4-57.3,36-86.1,53.8
			c-17.9,11.1-33,25.6-48.3,39.8c-51.5,47.6-97.4,100.3-141.4,154.8c-12.4,15.4-19.3,32.9-19.5,53.1c-0.4,29-1.6,57.9-2.4,86.9
			c-0.1,4.2,0.6,8.4,0.9,13.4c7.1-0.3,8.6-4.6,10.2-8.5c3.8-9.1,7.4-18.3,11.3-27.4c11.8-27.6,25.8-54.1,43.9-78.2
			c19.2-25.5,42.3-46,72.3-58c38.9-15.5,73.5-9.8,104,19.6c14.7,14.2,27.4,30,39.4,46.4c27.1,37.2,50.6,76.7,73,116.9
			c2.4,4.4,4.9,8.7,8,12.6c4,4.9,7.5,5.6,13.3,2.9c3.9-1.8,7.7-4.1,11.1-6.7c16.7-13,33.5-26.1,49.9-39.5
			C790.7,1717.4,808.7,1702.5,826.1,1687.1z"/>
		<path class="st3" d="M1273.9,1941.6c-0.1-6.3-2.4-11.7-7-16c-12.5-11.4-32.2-10.3-43.3,2.5c-17.6,20.2-34.6,41-52.9,60.6
			c-39.9,43-81.3,84.6-128,120.3c-53,40.5-109.4,75.9-167.4,108.8c-5.2,2.9-10.6,5.7-15.2,9.5c-8.9,7.2-11.3,16.8-9.1,27.8
			c2.1,10.6,9.4,15.6,19.1,17.9c1.9,0.5,3.9,0.8,5.9,1.2c24.9,5.1,50.1,6.5,75.3,8.9c34,3.3,65.9-3.1,95.6-18.9
			c71.7-38.1,133.3-89,185.1-151.6c12.8-15.5,22.6-32.9,28.7-51.9c3.8-11.8,5.2-24.5,6.9-36.9c2.9-20.7,5.1-41.5,7.7-62.3
			c-0.5-0.1-0.9-0.1-1.4-0.2C1273.9,1955,1274,1948.3,1273.9,1941.6z"/>
		<path class="st3" d="M1014.3,1956.2c27.4-26.6,54.1-54.1,81.1-81.1c9.4-9.4,7.3-16.8-3.5-23.1c-0.9-0.5-1.7-1-2.6-1.5
			c-45.2-25-88.4-53.1-130.4-83.3c-21.8-15.6-21.9-15.7-41.1,3.7c-43.4,44-90.4,83.7-141.8,118c-15.6,10.4-16.6,13.9-9.2,31.2
			c21.2,50,39.7,100.9,54.7,153.1c0.8,2.8,1.5,6.1,3.3,8.2c2.2,2.6,5.5,4.2,8.5,6.4c4.5-2,8.3-3.2,11.6-5.3
			c24.3-15.7,49-30.9,72.7-47.5C951.8,2011.1,984.4,1985.3,1014.3,1956.2z"/>
		<path class="st3" d="M353,1499.8c15-16.5,29.8-33.2,44.8-49.7c37.8-41.7,79.7-79,126-110.9c37-25.5,76.1-47.6,115.7-68.9
			c2.9-1.6,6-3,8.7-4.9c6.9-5.1,7-10,0.2-15.1c-1.8-1.4-3.9-2.5-6-3.5c-8.4-3.9-16.8-7.7-25.3-11.4c-20.8-9-42.1-13.3-64.6-6.9
			c-32.2,9.1-62.8,22.1-91.3,39.6c-36.1,22.2-68.6,48.6-93.3,83.5c-9.1,12.8-17.8,25.8-26.7,38.6c-11,15.7-16.6,33-15.3,52.3
			c0,6.3-0.7,12.7,0.2,18.8c1.4,10.2,3.7,20.2,5.9,30.2c0.7,3.1,1.7,6.3,3.4,8.8C339.8,1506.9,346.7,1506.7,353,1499.8z"/>
		<path class="st3" d="M457.6,1042.5c7.4,17.9,17.1,34.5,29.3,49.6c2.9,3.6,6.2,7.1,9.9,9.8c7.5,5.5,14.7,3.6,18.9-4.8
			c1.1-2.3,1.5-5,2.1-7.6c3.3-14.6,1.2-29.2-1-43.6c-1.9-12.7-5.1-25.4-9-37.6c-3.6-11.3-11-20.6-21.2-26.9
			c-13-7.9-30.4-4.6-34.4,12.3c-1.4,5.6-1.9,11.4-2.8,17.2c0.9,6.6,1.3,13.1,2.8,19.3C453.1,1034.5,455.9,1038.3,457.6,1042.5z"/>
		<path class="st3" d="M242.9,1292.8c-15-19.2-32.3-35.8-53-48.9c-10.6-6.7-21.9-10.8-34.7-10.4c-21,0.6-30.9,17.2-21,35.9
			c4.6,8.7,11.2,15.9,19.4,21.1c22.7,14.2,46.6,25.6,74,27.8c3,0,6,0.3,9,0c9-0.9,13.9-8.2,11.1-16.8
			C246.5,1298.4,244.9,1295.4,242.9,1292.8z"/>
		<path class="st2" d="M909,535.8c-8.8,3.1-17.5,6.6-25.8,10.7c-42.1,21-80.9,47-117.5,76.5c-10.7,8.6-20.6,18-31.1,26.8
			c-12.1,10.1-22.7,21.7-32.9,33.6c-8,9.3-14.7,19.6-21.3,30c-14.3,22.6-26.5,46.1-35.3,71.4c-3.3,9.4-6.4,18.7-8.3,28.5
			c-1.1,5.7-2.4,11.3-3.2,17.1c-1.6,10.7-2.1,21.4-1.4,32.2c0.8,13.5,3.8,26.3,10.7,38.1c4.7,8.1,11,14.6,19.1,19.1
			c9.7,5.5,20.3,7.3,31.3,7c14.9-0.4,28.7-5,42.1-11c20.3-9,37.9-22,54.6-36.4c26-22.4,47.2-48.8,65.6-77.6
			c17.5-27.3,32.1-56.1,44.9-85.8c8.3-19.4,15.8-39.1,21.7-58.1c5.2-18.3,10.1-35.6,12.6-53.3c1.7-12.2,2.9-24.5,1.7-36.9
			c-0.9-8.4-2.6-16.6-7.1-24C923.7,534.3,919.2,532.2,909,535.8z"/>
		<path class="st3" d="M788.6,486.5c3.5,8.9,6.9,17.9,10.6,26.7c4,9.7,8.1,19.4,12.5,29c3,6.6,4.8,7,11.1,3.3
			c7.6-4.3,15-8.9,22.6-13.3c15.7-9,31.7-17.3,48.7-23.6c7.4-2.7,14.9-4.8,22.8-5c6.1-0.2,12,0.6,17.5,3.5
			c7.1,3.9,12.9,9.2,17.7,15.7c8.3,11.2,12.2,24,13.9,37.7c2,16.7,0.8,33.3-1.7,49.9c-0.5,3.6-1.1,7.1-1.6,10.7
			c-0.2,1.3,0,2.4,1.5,2.8c1.4,0.4,2.3-0.1,3-1.3c0.5-0.9,1.1-1.8,1.6-2.7c5.9-11.2,11.7-22.4,17.5-33.6c6-11.6,8.1-23.6,5.9-36.7
			c-2.7-15.7-5.7-31.4-9.6-46.9c-3.7-14.8-8.1-29.5-12-44.3c-2.4-9.2-6.8-17.6-10.9-26.1c-13.9-28.5-30.6-55.3-48.5-81.4
			c-5-7.4-11.7-12.6-20.4-15.4c-12.5-3.9-24.8-8.3-37.3-12.4c-1.8-0.6-3.7-0.9-5.9-1.3c-0.8,3.1,0.9,4.3,2.3,5.5
			c3.4,2.9,6.9,5.6,10.4,8.5c10.4,8.7,20,18.2,28.1,29.2c8.5,11.6,14.4,24.3,15.6,38.9c1.6,18.8-5.4,33.1-22.1,42.4
			c-8.1,4.5-16.5,7.9-25.2,11c-19.6,6.9-39.8,11.9-60.1,16.3c-2.2,0.5-4.4,1-6.5,1.8c-2.6,1.1-3.4,2.5-3,5.4
			C787.4,482.8,787.9,484.7,788.6,486.5z"/>
		<path class="st3" d="M574.5,662.1c5,7.6,11.3,14.1,18.7,19.2c4.6,3.2,9.9,5.5,15,7.8c8.6,4,17.3,7.6,25.9,11.5
			c0.1-0.2,0.2-0.4,0.2-0.6c2.9,0.9,5.7,1.8,8.6,2.6c2.7,0.8,5.4,0.5,7.8-1c6.6-3.9,8.6-12.6,4.6-19c-6.5-10.3-13.2-20.3-19.3-30.8
			c-13.4-22.9-26-46.2-35.3-71.1c-10.6-28.2-18.5-57.2-25.1-86.6c-0.6-2.6-1.1-5.3-2.1-7.8c-1.9-4.8-5.8-7.1-10.9-7.6
			c-4.9-0.5-8,2-10.2,5.9c-0.5,0.8-0.9,1.6-1.3,2.4c-5.4,10.1-9.4,20.8-13.7,31.4c-5.9,14.3-7.3,28.9-4.3,43.8
			C540.3,598.3,554.3,631.5,574.5,662.1z"/>
		<path class="st3" d="M649.3,536.4c5.9,17.9,12.8,35.4,21.4,52.1c7.9,15.3,16.3,30.5,24.5,45.7c2.8,5.3,6.3,5.3,10.4,1.5
			c0.3-0.3,0.7-0.6,1-0.9c16.7-16.3,34.5-31.3,53-45.5c9.6-7.4,9.7-7.4,3.8-18.3c-13.4-24.5-24.4-50-32.5-76.7
			c-2.5-8.1-3.8-9-12.3-8.1c-24.4,2.6-48.8,4-73.3,3.6c-1.3,0-2.8-0.1-4,0.4c-1.4,0.6-2.5,1.8-3.9,2.8c0.3,2.2,0.3,4,0.8,5.7
			C641.8,511.3,645.2,523.9,649.3,536.4z"/>
		<path class="st3" d="M970.1,388c13.1,21.8,23.7,44.8,31.5,69c6.2,19.3,10.6,39.1,14.7,59c0.3,1.5,0.5,3,1,4.4
			c1.3,3.7,3.4,4.3,6.5,2.1c0.8-0.6,1.6-1.4,2.3-2.1c2.8-3.1,5.5-6.3,8.2-9.4c6.6-7.8,11.2-16.5,11.4-27c0.3-15.1-1.3-30-5.2-44.6
			c-4.9-18.5-12-36-23.9-51.3c-4.3-5.6-8.8-11.1-13.2-16.6c-5.4-6.8-12.1-11.5-20.6-13.4c-2.7-0.8-5.4-2-8.2-2.4
			c-4.6-0.7-9.2-1-13.8-1.4c-1.4-0.1-2.9-0.1-4.3,0.3c-3.4,1-4.2,4.1-2.1,7.7C959.7,370.8,965,379.4,970.1,388z"/>
		<path class="st3" d="M1110.4,487c5.9,3.3,12.5,4.3,19,5.3c5.8,0.8,11.6,1.1,17.5,1c5.4-0.1,10.3-2,14.4-5.7
			c5.1-4.6,5.9-12.5-0.8-16.5c-2.3-1.3-4.7-2.3-7.1-3.5c-3-0.5-5.8-1.1-8.7-1.3c-2-0.1-4,0.6-6,0.8c-8.7,0.9-17.2,2.9-25.3,6.2
			c-1.9,0.8-3.9,1.7-5.5,3c-3.4,2.5-3.5,5.9-0.4,8.8C1108.2,485.9,1109.4,486.5,1110.4,487z"/>
		<path class="st3" d="M1054,342.5c1.5,0,3-0.3,4.3-0.9c10.3-4,19.7-9.3,28.1-16.5c4.3-3.7,7.5-8.1,9-13.6
			c2.5-9.2-3.4-15.6-12.8-13.8c-4.4,0.8-8.3,2.7-11.7,5.6c-9.1,8-17.2,16.8-21.7,28.3c-0.4,1.3-0.9,2.6-1.2,3.9
			C1047.4,339.5,1050,342.6,1054,342.5z"/>
	</g>
</g>
<path class="st2" d="M1930.3,492.3c-20.3,38.9-34.8,79.9-45.7,122.3c-5,19.5-9.7,39.1-11.9,59.1c-2.8,25.6-4.6,51.3-3.2,77.1
	c1.3,22.4,1.2,44.9,3,67.3c5.9,76.7,18.4,152.3,40.5,226.1c4.4,14.6,10,28.9,16.2,42.9c7.2,16.1,14.8,19.2,32,15.6
	c13.9-2.9,25.6-10,36.7-18.5c16.2-12.4,29.5-27.6,42.1-43.4c18.4-23,33.4-48.2,49.5-75c16-28.5,31.2-59.4,45-91.1
	c21.1-48.7,39.1-98.5,52.1-150c10.3-41.1,17.3-103.1,19-152.5c-2.2-1.4-4.5-2.7-6.7-4.1L1966,433.7c-4.9,7.6-9.4,14.4-11.1,16.7
	C1945.4,463.6,1937.8,477.9,1930.3,492.3z"/>
<path class="st2" d="M780.5,2249.3c-1.1-27.1-2.7-54.4-7.7-81c-6.4-34.1-14.1-68.1-26-100.9c-10.4-28.5-19.1-57.6-30.1-85.8
	c-37.6-96.9-83.3-189.8-140.8-276.5c-11.4-17.2-24.2-33.5-37.7-49.1c-15.6-18-26.6-19-47.5-7.6c-16.9,9.2-29.2,23-40.2,38.2
	c-16.1,22.3-27.4,47.2-37.5,72.6c-14.8,36.9-24.4,75.4-34.7,116.3c-9.6,43.1-17.1,89-22.5,135.4c-5.1,43.7-8.5,105.8-9.5,155.4
	L773.8,2413C780.5,2361.6,782.5,2297.2,780.5,2249.3z"/>
<path class="st2" d="M474.4,406.1c8,5.8,16.8,10.5,25.5,15.1c23.7,12.4,48.8,21.2,74.6,27.9c11.9,3.1,23.9,5.9,36.1,7.2
	c15.6,1.7,31.3,2.8,47,1.9c13.7-0.8,27.4-0.8,41-1.8c46.8-3.6,92.9-11.2,138-24.7c8.9-2.7,17.7-6.1,26.2-9.9
	c9.8-4.4,11.7-9,9.5-19.5c-1.8-8.5-6.1-15.6-11.3-22.4c-7.6-9.9-16.8-18-26.5-25.7c-14-11.2-29.4-20.4-45.7-30.2
	c-17.4-9.8-36.3-19-55.6-27.4c-29.7-12.9-60.1-23.9-91.5-31.8c-0.3-0.1-1.6-0.4-3.5-0.8L440.5,378.1c7.1,6.8,15.4,14.3,19.8,17.8
	C464.8,399.5,469.7,402.7,474.4,406.1z"/>
</svg>
